<?xml version="1.0" encoding="utf-8"?>
<!-- Generator: Adobe Illustrator 21.1.0, SVG Export Plug-In . SVG Version: 6.00 Build 0)  -->
<svg version="1.1" id="Camada_1" xmlns="http://www.w3.org/2000/svg" xmlns:xlink="http://www.w3.org/1999/xlink" x="0px" y="0px"
	 width="351.3px" height="111.4px" viewBox="0 0 351.3 111.4" style="enable-background:new 0 0 351.3 111.4;" xml:space="preserve"
	>
<style type="text/css">
	.st0{clip-path:url(#SVGID_2_);fill-rule:evenodd;clip-rule:evenodd;fill:#E3002F;}
	.st1{fill-rule:evenodd;clip-rule:evenodd;fill:#009EE0;}
	.st2{clip-path:url(#SVGID_4_);fill-rule:evenodd;clip-rule:evenodd;fill:#009EE0;}
	.st3{fill-rule:evenodd;clip-rule:evenodd;fill:#FFFFFF;}
</style>
<g>
	<defs>
		<rect id="SVGID_1_" width="351" height="111.4"/>
	</defs>
	<clipPath id="SVGID_2_">
		<use xlink:href="#SVGID_1_"  style="overflow:visible;"/>
	</clipPath>
	<path class="st0" d="M10.9,16.2L0.3,64C-1.6,76.4,5,80.9,16.3,81h52.7c10.8-0.1,17.7-4.7,19.5-15.2l5.9-30.9H49.9l-4.3,18h6.3
		c-0.4,1.8-0.8,3.7-1.2,5.6c-0.7,3-3.4,4.6-6,4.5c-2.2-0.1-4.3-1.2-3.6-4.6l7.4-35.7c2.4-6,10-5,9.3,0L57,25.8c13.1,0,26.3,0,39.4,0
		c4.5-12.7,5.2-23.4-12.7-24.5c-6.7,0-20.5-0.1-33.3-0.2C39.8,1,29.8,0.7,25.3,2C17.4,4.3,12.8,9.2,10.9,16.2L10.9,16.2z M10.9,16.2
		"/>
</g>
<path class="st1" d="M191.2,33.8l2.9,46.8h19.2l9.8-21.6v21.4h20.1l22.5-46.5h-20.9l-8.5,19.6V33.8h-15.8l-8.5,19.8V33.8H191.2z
	 M191.2,33.8"/>
<g>
	<defs>
		<rect id="SVGID_3_" width="351" height="111.4"/>
	</defs>
	<clipPath id="SVGID_4_">
		<use xlink:href="#SVGID_3_"  style="overflow:visible;"/>
	</clipPath>
	<path class="st2" d="M275.3,21.1l-3,12.6h-5.4l-1.9,8.5h5.9l-8.2,37.4h21.6l7.8-36.9h6.1l2.2-8.9h-6.3l2.4-12.6L275.3,21.1z
		 M275.3,21.1"/>
	<path class="st2" d="M307.2,21.2l-12.4,58.7h21.4l6.9-32.2c1-5.9,7.2-3.8,5.7,0.8l-6.4,31.6h21.4c2.4-11.3,4.8-22.6,7.2-33.9
		c0.7-12.7-8.4-15.5-25.9-9.8l3.7-15.2L307.2,21.2z M307.2,21.2"/>
</g>
<path class="st1" d="M101.8,34.4l-9.5,45.8H114c1.8-8.8,3.6-17.7,5.5-26.5c2.7-6,7.1-8,12.6-7.4c0.8-4.5,1.7-9,2.5-13.5
	c-5.2,0.1-9.8,0.9-12,3.9l0.3-2.6L101.8,34.4z M101.8,34.4"/>
<path class="st3" d="M336.3,95.4h-19l-0.7,3.8h12.3c3,0,4.8,0.3,5.8,1.5c1.4,1.6,0.9,6.4-1.8,8.4c-0.8,0.6-4.2,0.9-6.1,0.9h-16.9
	l0.7-3.3h20.1l0.8-4h-14.7c-1.9,0-3.2-0.3-3.7-0.9c-0.6-0.6-0.7-1.7-0.4-3.3l0.4-1.9c0.3-1.6,0.9-2.7,1.6-3.3
	c0.8-0.6,2.1-0.9,4.1-0.9h18L336.3,95.4z M41.8,95.4h-19l-0.7,3.8h12.3c3,0,4.8,0.3,5.8,1.5c1.4,1.6,0.9,6.4-1.8,8.4
	c-0.8,0.6-4.1,0.9-6.1,0.9H15.4l0.7-3.3h20.1l0.8-4H22.3c-1.9,0-3.1-0.3-3.7-0.9c-0.6-0.6-0.7-1.7-0.4-3.3l0.4-1.9
	c0.3-1.6,0.9-2.7,1.6-3.3c0.8-0.6,2.1-0.9,4.1-0.9h18L41.8,95.4z M53.6,92.3l-2.7,14.3h15.8l2.7-14.3h4.6l-2.6,13.5
	c-0.3,1.6-0.8,2.7-1.6,3.3c-0.8,0.6-3.7,0.9-5.7,0.9H50.6c-1.9,0-3.1-0.3-3.7-0.9c-0.6-0.6-0.7-1.7-0.4-3.3L49,92.3H53.6z
	 M96.7,95.4H84.6l-0.9,4.7h12.1c0.8,0,1.4-0.1,1.7-0.3c0.3-0.2,0.6-0.6,0.7-1.1l0.3-1.9c0.1-0.5,0-0.9-0.2-1.1
	C98,95.5,97.5,95.4,96.7,95.4L96.7,95.4z M77.3,110l3.3-17.7h18.7c1.6,0,2.6,0.3,3.3,0.8c0.6,0.5,0.8,1.4,0.6,2.6l-0.8,4
	c-0.2,1.2-0.7,2.1-1.5,2.6c-0.8,0.5-2,0.8-3.6,0.8H83.1l-1.3,6.9H77.3z M125.1,95.4h-12.3l-0.9,4.7h12.3c0.8,0,1.4-0.1,1.7-0.3
	c0.3-0.2,0.5-0.6,0.7-1.1l0.4-1.9c0.1-0.5,0-0.9-0.2-1.1C126.4,95.5,125.9,95.4,125.1,95.4L125.1,95.4z M105.5,110l3.3-17.7h18.9
	c1.6,0,2.7,0.3,3.3,0.8c0.6,0.5,0.8,1.4,0.6,2.6l-0.7,4c-0.2,1.2-0.7,2.1-1.6,2.6c-0.8,0.5-2,0.8-3.5,0.8h-14.4L110,110H105.5z
	 M133.4,109.9l3.3-17.7h4.6l-2.7,14.3l15.5,0.1l-1.3,3.3H133.4z M159.5,110.1l3.4-17.7l20.5,0l-0.8,3l-15.7,0.1l-0.8,3.9l14.8,0
	l-0.6,3l-14.8,0l-0.8,4.4l15.6,0l-1.5,3.4H159.5z M185.5,110l3.3-17.7h3.7l8.5,12.9l14.6-12.9h4.3l-3.5,17.7h-3.6
	c0.4-3.3,1.4-8.6,1.9-11.7c0.1-1-0.1-0.7-0.8,0c-0.3,0.3-0.4,0.6-0.6,0.7l-11,11h-2.9L192.4,99c-0.2-0.3-0.4-0.6-0.5-0.9
	c-0.1-0.3-0.2-0.6-0.3-0.9c0,0.4-0.1,0.7-0.1,1c0,0.3-0.1,0.6-0.1,0.9l-2.1,10.9H185.5z M223.3,110l3.4-17.7h20.9l-0.6,3h-16.3
	l-0.8,4h14.8l-0.6,3h-14.8l-0.8,4.4h15.6l-0.6,3.3H223.3z M249.2,110l3.4-17.7h3.1l18.1,11.7c0-0.2,2.4-9,2.9-11.7h3.7l-4.1,17.7
	H274l-18.5-12.8c-0.4,1.3-0.5,2.5-0.7,3.3l-2.2,9.5H249.2z M299,95.5l-2.7,14.5H292l2.7-14.5h-9.9l0.6-3.1h24l-0.6,3.1H299z
	 M299,95.5"/>
<path class="st1" d="M166.3,33.9h-18.9c-5.6,0.9-8.9,3.9-9.9,8.9c-2.2,9.5-4.2,19-6.5,28.5c-2.6,10.8,14.1,9,25.8,9H169
	c3.7-0.4,7.7-2.3,10.1-5.3c1.9-2.4,5.6-19.9,8.2-32.4C189.4,32.3,176.1,33.9,166.3,33.9L166.3,33.9z M160,68.6c-0.3,1.7-1.9,3-3.6,3
	h-0.2c-1.7,0-2.7-1.4-2.4-3l4.3-22.2c0.3-1.7,1.9-3,3.6-3h0.2c1.6,0,2.7,1.4,2.4,3L160,68.6z M160,68.6"/>
</svg>
